<svg xmlns="http://www.w3.org/2000/svg" viewBox="0 0 512 512">
  <defs>
    <linearGradient id="bg" x1="0%" y1="0%" x2="100%" y2="100%">
      <stop offset="0%" stop-color="#4F8EF7"/>
      <stop offset="100%" stop-color="#1A4FD8"/>
    </linearGradient>
  </defs>
  <rect width="512" height="512" fill="url(#bg)"/>
  <!-- Flame -->
  <path d="M230 322 L256 410 L282 322 Z" fill="white" opacity="0.5"/>
  <path d="M242 322 L256 378 L270 322 Z" fill="white" opacity="0.85"/>
  <!-- Fins -->
  <path d="M198 270 L150 362 Q148 368 156 364 L202 332 Z" fill="white" opacity="0.92"/>
  <path d="M314 270 L362 362 Q364 368 356 364 L310 332 Z" fill="white" opacity="0.92"/>
  <!-- Body -->
  <path d="M256 94 C298 142 322 212 322 272 C322 304 300 326 256 326 C212 326 190 304 190 272 C190 212 214 142 256 94 Z" fill="white"/>
  <!-- Window -->
  <circle cx="256" cy="212" r="34" fill="url(#bg)"/>
</svg>
